<svg width="2500" height="2500" xmlns="http://www.w3.org/2000/svg" clip-rule="evenodd" version="1.1">

 <g>
  <title>Layer 1</title>
  <rect transform="rotate(0.334207 -1532.27 938.215)" stroke="#000" id="svg_60" height="2617.03206" width="2602.13919" y="-370.30066" x="-2833.34326" fill="#9ACEE6"/>
  <rect stroke="#000" id="svg_62" height="2540.24966" width="2528.24856" y="-11.87819" x="-16.12448" fill="#9ACEE6"/>
  <g id="svg_61">
   <g id="svg_3">
    <path id="svg_4" d="m1018.54916,722.54642c0.167,52.001 0,104.001 -0.5,156c-89.329,-43.082 -178.829,-85.748 -268.5,-128c0,-9.333 0,-18.667 0,-28c89.667,0 179.333,0 269,0z" fill="#000066"/>
   </g>
   <g id="svg_5">
    <path id="svg_6" d="m1018.54916,722.54642c12,0 24,0 36,0c0,68.333 0,136.667 0,205c-101.667,0 -203.333,0 -305,0c0,-11.333 0,-22.667 0,-34c19.669,0.167 39.336,0 59,-0.5c-1.027,-0.513 -2.027,-1.013 -3,-1.5c-18.662,-8.664 -37.329,-17.331 -56,-26c0,-6.333 0,-12.667 0,-19c33.12,15.06 66.12,30.393 99,46c26.497,1.164 53.164,1.33 80,0.5c-0.544,-0.717 -1.211,-1.217 -2,-1.5c-58.89,-27.946 -117.89,-55.612 -177,-83c0,-19.333 0,-38.667 0,-58c89.671,42.252 179.171,84.918 268.5,128c0.5,-51.999 0.667,-103.999 0.5,-156z" fill="#fefdfd"/>
   </g>
   <g id="svg_7">
    <path id="svg_8" d="m1054.54916,722.54642c35.667,0 71.333,0 107,0c0,68.333 0,136.667 0,205c102,0 204,0 306,0c0,34 0,68 0,102c-101.667,0 -203.333,0 -305,0c0,59.667 0,119.333 0,179c-36,0 -72,0 -108,0c0,-59.667 0,-119.333 0,-179c-101.667,0 -203.333,0 -305,0c0,-34 0,-68 0,-102c101.667,0 203.333,0 305,0c0,-68.333 0,-136.667 0,-205z" fill="#cc0000"/>
   </g>
   <g id="svg_9">
    <path id="svg_10" d="m1162.54916,722.54642c11.667,0 23.333,0 35,0c-0.333,52.004 0,104.004 1,156c0.607,-0.124 0.94,-0.457 1,-1c88.667,-42 177.333,-84 266,-126c0.667,0 1.333,0 2,0c0,6 0,12 0,18c-85.545,40.94 -171.212,81.606 -257,122c-0.789,0.283 -1.456,0.783 -2,1.5c26.836,0.83 53.503,0.664 80,-0.5c59.788,-28.06 119.455,-56.394 179,-85c0,19 0,38 0,57c-0.667,0 -1,0.333 -1,1c-18.662,8.664 -37.329,17.331 -56,26c-0.789,0.283 -1.456,0.783 -2,1.5c19.664,0.5 39.331,0.667 59,0.5c0,11 0,22 0,33c-101.667,0 -203.333,0 -305,0c0,-68 0,-136 0,-204z" fill="#fefdfe"/>
   </g>
   <g id="svg_11">
    <path id="svg_12" d="m1197.54916,722.54642c0.333,0 0.667,0 1,0c-0.332,51.836 0.001,103.503 1,155c-0.06,0.543 -0.393,0.876 -1,1c-1,-51.996 -1.333,-103.996 -1,-156z" fill="#9191bd"/>
   </g>
   <g id="svg_13">
    <path id="svg_14" d="m1198.54916,722.54642c89.333,0 178.667,0 268,0c0.306,9.75 -0.027,19.416 -1,29c-88.667,42 -177.333,84 -266,126c-0.999,-51.497 -1.332,-103.164 -1,-155z" fill="#000066"/>
   </g>
   <g id="svg_15">
    <path id="svg_16" d="m1466.54916,722.54642c0.994,9.486 1.327,19.152 1,29c-0.667,0 -1.333,0 -2,0c0.973,-9.584 1.306,-19.25 1,-29z" fill="#576692"/>
   </g>
   <g id="svg_17">
    <path id="svg_18" d="m1467.54916,769.54642c0,12.667 0,25.333 0,38c-59.545,28.606 -119.212,56.94 -179,85c-26.172,0.331 -52.172,-0.002 -78,-1c85.788,-40.394 171.455,-81.06 257,-122z" fill="#cc0402"/>
   </g>
   <g id="svg_19">
    <path id="svg_20" d="m749.54916,808.54642c59.11,27.388 118.11,55.054 177,83c-25.828,0.998 -51.828,1.331 -78,1c-32.88,-15.607 -65.88,-30.94 -99,-46c0,-12.667 0,-25.333 0,-38z" fill="#cc0301"/>
   </g>
   <g id="svg_21">
    <path id="svg_22" d="m749.54916,865.54642c18.671,8.669 37.338,17.336 56,26c-18.493,0.997 -37.159,1.33 -56,1c0,-9 0,-18 0,-27z" fill="#020166"/>
   </g>
   <g id="svg_23">
    <path id="svg_24" d="m1466.54916,865.54642c0,9 0,18 0,27c-18.841,0.33 -37.507,-0.003 -56,-1c18.671,-8.669 37.338,-17.336 56,-26z" fill="#030167"/>
   </g>
   <g id="svg_25">
    <path id="svg_26" d="m805.54916,891.54642c0.973,0.487 1.973,0.987 3,1.5c-19.664,0.5 -39.331,0.667 -59,0.5c0,-0.333 0,-0.667 0,-1c18.841,0.33 37.507,-0.003 56,-1z" fill="#7777ad"/>
   </g>
   <g id="svg_27">
    <path id="svg_28" d="m926.54916,891.54642c0.789,0.283 1.456,0.783 2,1.5c-26.836,0.83 -53.503,0.664 -80,-0.5c26.172,0.331 52.172,-0.002 78,-1z" fill="#e47777"/>
   </g>
   <g id="svg_29">
    <path id="svg_30" d="m1210.54916,891.54642c25.828,0.998 51.828,1.331 78,1c-26.497,1.164 -53.164,1.33 -80,0.5c0.544,-0.717 1.211,-1.217 2,-1.5z" fill="#e47777"/>
   </g>
   <g id="svg_31">
    <path id="svg_32" d="m1467.54916,864.54642c0,9.667 0,19.333 0,29c-19.669,0.167 -39.336,0 -59,-0.5c0.544,-0.717 1.211,-1.217 2,-1.5c18.493,0.997 37.159,1.33 56,1c0,-9 0,-18 0,-27c0,-0.667 0.333,-1 1,-1z" fill="#6f73a6"/>
   </g>
   <g id="svg_33">
    <path id="svg_34" d="m1161.54916,722.54642c0.333,0 0.667,0 1,0c0,68 0,136 0,204c101.667,0 203.333,0 305,0c0,0.333 0,0.667 0,1c-102,0 -204,0 -306,0c0,-68.333 0,-136.667 0,-205z" fill="#e88684"/>
   </g>
   <g id="svg_35">
    <path id="svg_36" d="m749.54916,1063.54642c19.336,-0.167 38.67,0 58,0.5c-19.481,8.908 -38.814,18.074 -58,27.5c0,-9.333 0,-18.667 0,-28z" fill="#040267"/>
   </g>
   <g id="svg_37">
    <path id="svg_38" d="m749.54916,1186.54642c0,-12.667 0,-25.333 0,-38c59.433,-27.882 118.766,-56.049 178,-84.5c27,-0.667 54,-0.667 81,0c-86.355,40.845 -172.688,81.678 -259,122.5z" fill="#cc0402"/>
   </g>
   <g id="svg_39">
    <path id="svg_40" d="m1467.54916,1110.54642c0,12.667 0,25.333 0,38c-59.645,-28.155 -119.312,-56.322 -179,-84.5c26.667,-0.667 53.333,-0.667 80,0c33.022,15.512 66.022,31.012 99,46.5z" fill="#cc0402"/>
   </g>
   <g id="svg_41">
    <path id="svg_42" d="m1466.54916,1063.54642c0.327,9.182 -0.007,18.182 -1,27c-18.766,-8.549 -37.433,-17.382 -56,-26.5c18.997,-0.5 37.997,-0.667 57,-0.5z" fill="#040267"/>
   </g>
   <g id="svg_43">
    <path id="svg_44" d="m1466.54916,1063.54642c0.333,0 0.667,0 1,0c0,9.333 0,18.667 0,28c-0.992,0.172 -1.658,-0.162 -2,-1c0.993,-8.818 1.327,-17.818 1,-27z" fill="#536390"/>
   </g>
   <g id="svg_45">
    <path id="svg_46" d="m1018.54916,1233.54642c-89.667,0 -179.333,0 -269,0c0,-9.333 0,-18.667 0,-28c89.554,-41.776 178.887,-84.109 268,-127c1,51.662 1.333,103.329 1,155z" fill="#000066"/>
   </g>
   <g id="svg_47">
    <path id="svg_48" d="m1466.54916,1205.54642c0,1 0,2 0,3c-89.333,0 -178.667,0 -268,0c-0.167,-43.335 0,-86.668 0.5,-130c89.112,42.473 178.279,84.806 267.5,127z" fill="#010066"/>
   </g>
   <g id="svg_49">
    <path id="svg_50" d="m749.54916,1029.54642c101.667,0 203.333,0 305,0c0,59.667 0,119.333 0,179c36,0 72,0 108,0c0,-59.667 0,-119.333 0,-179c101.667,0 203.333,0 305,0c0,11.333 0,22.667 0,34c-0.333,0 -0.667,0 -1,0c-19.003,-0.167 -38.003,0 -57,0.5c18.567,9.118 37.234,17.951 56,26.5c0.342,0.838 1.008,1.172 2,1c0,6.333 0,12.667 0,19c-32.978,-15.488 -65.978,-30.988 -99,-46.5c-26.667,-0.667 -53.333,-0.667 -80,0c59.688,28.178 119.355,56.345 179,84.5c0.33,19.174 -0.003,38.174 -1,57c-89.221,-42.194 -178.388,-84.527 -267.5,-127c-0.5,43.332 -0.667,86.665 -0.5,130c89.333,0 178.667,0 268,0c92.33,0 184.67,0 277,0c0,85.333 0,170.667 0,256c-101.67,0 -203.33,0 -305,0c-129.171,-84.751 -258.171,-169.751 -387,-255c-0.06,-0.543 -0.393,-0.876 -1,-1c-0.998,8.641 -1.331,17.308 -1,26c-10.514,0.328 -20.847,-0.006 -31,-1c0.333,-51.671 0,-103.338 -1,-155c-89.113,42.891 -178.446,85.224 -268,127c0,-6.333 0,-12.667 0,-19c86.312,-40.822 172.645,-81.655 259,-122.5c-27,-0.667 -54,-0.667 -81,0c-59.234,28.451 -118.567,56.618 -178,84.5c0,-19 0,-38 0,-57c19.186,-9.426 38.519,-18.592 58,-27.5c-19.33,-0.5 -38.664,-0.667 -58,-0.5c0,-11.333 0,-22.667 0,-34z" fill="#fefefe"/>
   </g>
   <g id="svg_51">
    <path id="svg_52" d="m1051.54916,1209.54642c128.829,85.249 257.829,170.249 387,255c0,0.333 0,0.667 0,1c-129.333,85 -258.667,170 -388,255c-0.333,-170.5 0,-340.834 1,-511z" fill="#00006f"/>
   </g>
   <g id="svg_53">
    <path id="svg_54" d="m1051.54916,1209.54642c-1,170.166 -1.333,340.5 -1,511c0,0.33 0,0.67 0,1c-1,-162.17 -1.333,-324.499 -1,-487c-0.331,-8.692 0.002,-17.359 1,-26c0.607,0.124 0.94,0.457 1,1z" fill="#665c8e"/>
   </g>
   <g id="svg_55">
    <path id="svg_56" d="m1743.54916,1208.54642c1.33,171 1.33,342 0,513c0,-85.33 0,-170.67 0,-256c-101.67,0 -203.33,0 -305,0c0,-0.333 0,-0.667 0,-1c101.67,0 203.33,0 305,0c0,-85.333 0,-170.667 0,-256z" fill="#efbac0"/>
   </g>
   <g id="svg_57">
    <path id="svg_58" d="m1442.54956,1465.54642c101.67,0 203.33,0 305,0c0,85.33 0,170.67 0,256c-231,0 -462,0 -693,0c0,-0.33 0,-0.67 0,-1c129.333,-85 258.667,-170 388,-255z" fill="#e70000"/>
   </g>
  </g>
 </g>
</svg>