<?xml version="1.0" encoding="UTF-8"?>
<!DOCTYPE svg PUBLIC "-//W3C//DTD SVG 1.1//EN" "http://www.w3.org/Graphics/SVG/1.1/DTD/svg11.dtd">
<svg xmlns="http://www.w3.org/2000/svg" version="1.1" width="512px" height="512px" style="shape-rendering:geometricPrecision; text-rendering:geometricPrecision; image-rendering:optimizeQuality; fill-rule:evenodd; clip-rule:evenodd" xmlns:xlink="http://www.w3.org/1999/xlink">
<g><path style="opacity:0.988" fill="#2195f2" d="M 234.5,12.5 C 336.646,9.14406 414.48,50.4774 468,136.5C 510.527,216.209 511.194,296.542 470,377.5C 425.855,453.023 360.021,495.523 272.5,505C 170.407,508.749 92.5739,467.582 39,381.5C -4.3322,299.817 -4.3322,218.15 39,136.5C 83.6947,63.2182 148.861,21.8848 234.5,12.5 Z"/></g>
<g><path style="opacity:1" fill="#020167" d="M 176.5,85.5 C 176.83,103.008 176.497,120.341 175.5,137.5C 145.5,123.5 115.5,109.5 85.5,95.5C 84.5863,92.272 84.2529,88.9387 84.5,85.5C 115.167,85.5 145.833,85.5 176.5,85.5 Z"/></g>
<g><path style="opacity:1" fill="#c4c4db" d="M 176.5,85.5 C 176.833,85.5 177.167,85.5 177.5,85.5C 177.833,103.179 177.5,120.846 176.5,138.5C 175.893,138.376 175.56,138.043 175.5,137.5C 176.497,120.341 176.83,103.008 176.5,85.5 Z"/></g>
<g><path style="opacity:1" fill="#fcf8f9" d="M 177.5,85.5 C 181.167,85.5 184.833,85.5 188.5,85.5C 188.5,108.833 188.5,132.167 188.5,155.5C 153.833,155.5 119.167,155.5 84.5,155.5C 84.5,151.5 84.5,147.5 84.5,143.5C 90.8421,143.666 97.1754,143.5 103.5,143C 97.6254,139.896 91.6254,137.063 85.5,134.5C 84.6314,132.283 84.298,129.95 84.5,127.5C 84.8333,127.5 85.1667,127.5 85.5,127.5C 96.018,132.925 106.685,138.092 117.5,143C 126.5,143.667 135.5,143.667 144.5,143C 125.297,133.565 105.963,124.398 86.5,115.5C 86.1583,114.662 85.4916,114.328 84.5,114.5C 84.1765,107.978 84.5098,101.645 85.5,95.5C 115.5,109.5 145.5,123.5 175.5,137.5C 175.56,138.043 175.893,138.376 176.5,138.5C 177.5,120.846 177.833,103.179 177.5,85.5 Z"/></g>
<g><path style="opacity:1" fill="#cc0301" d="M 188.5,85.5 C 200.833,85.5 213.167,85.5 225.5,85.5C 225.5,108.833 225.5,132.167 225.5,155.5C 260.167,155.5 294.833,155.5 329.5,155.5C 329.5,166.833 329.5,178.167 329.5,189.5C 294.833,189.5 260.167,189.5 225.5,189.5C 225.5,209.833 225.5,230.167 225.5,250.5C 213.5,250.5 201.5,250.5 189.5,250.5C 188.503,230.34 188.17,210.007 188.5,189.5C 153.833,189.5 119.167,189.5 84.5,189.5C 84.5,178.167 84.5,166.833 84.5,155.5C 119.167,155.5 153.833,155.5 188.5,155.5C 188.5,132.167 188.5,108.833 188.5,85.5 Z"/></g>
<g><path style="opacity:1" fill="#fcf6f6" d="M 225.5,85.5 C 229.5,85.5 233.5,85.5 237.5,85.5C 237.167,103.179 237.5,120.846 238.5,138.5C 239.107,138.376 239.44,138.043 239.5,137.5C 269.041,123.229 298.708,109.229 328.5,95.5C 329.461,97.2646 329.795,99.2646 329.5,101.5C 300.28,114.852 271.28,128.686 242.5,143C 251.5,143.667 260.5,143.667 269.5,143C 289.405,133.213 309.405,123.713 329.5,114.5C 329.793,121.255 329.46,127.922 328.5,134.5C 322.405,137.046 316.405,139.88 310.5,143C 316.825,143.5 323.158,143.666 329.5,143.5C 329.5,147.5 329.5,151.5 329.5,155.5C 294.833,155.5 260.167,155.5 225.5,155.5C 225.5,132.167 225.5,108.833 225.5,85.5 Z"/></g>
<g><path style="opacity:1" fill="#7575ac" d="M 237.5,85.5 C 237.833,85.5 238.167,85.5 238.5,85.5C 238.17,103.008 238.503,120.341 239.5,137.5C 239.44,138.043 239.107,138.376 238.5,138.5C 237.5,120.846 237.167,103.179 237.5,85.5 Z"/></g>
<g><path style="opacity:1" fill="#010066" d="M 238.5,85.5 C 268.833,85.5 299.167,85.5 329.5,85.5C 329.747,88.9387 329.414,92.272 328.5,95.5C 298.708,109.229 269.041,123.229 239.5,137.5C 238.503,120.341 238.17,103.008 238.5,85.5 Z"/></g>
<g><path style="opacity:1" fill="#cd110a" d="M 329.5,101.5 C 329.5,105.833 329.5,110.167 329.5,114.5C 309.405,123.713 289.405,133.213 269.5,143C 260.5,143.667 251.5,143.667 242.5,143C 271.28,128.686 300.28,114.852 329.5,101.5 Z"/></g>
<g><path style="opacity:1" fill="#963a58" d="M 84.5,114.5 C 85.4916,114.328 86.1583,114.662 86.5,115.5C 85.5166,119.298 85.1832,123.298 85.5,127.5C 85.1667,127.5 84.8333,127.5 84.5,127.5C 84.5,123.167 84.5,118.833 84.5,114.5 Z"/></g>
<g><path style="opacity:1" fill="#cd0f09" d="M 86.5,115.5 C 105.963,124.398 125.297,133.565 144.5,143C 135.5,143.667 126.5,143.667 117.5,143C 106.685,138.092 96.018,132.925 85.5,127.5C 85.1832,123.298 85.5166,119.298 86.5,115.5 Z"/></g>
<g><path style="opacity:1" fill="#161270" d="M 85.5,134.5 C 91.6254,137.063 97.6254,139.896 103.5,143C 97.1754,143.5 90.8421,143.666 84.5,143.5C 84.19,140.287 84.5233,137.287 85.5,134.5 Z"/></g>
<g><path style="opacity:1" fill="#1a126f" d="M 328.5,134.5 C 329.477,137.287 329.81,140.287 329.5,143.5C 323.158,143.666 316.825,143.5 310.5,143C 316.405,139.88 322.405,137.046 328.5,134.5 Z"/></g>
<g><path style="opacity:1" fill="#fdfcfd" d="M 84.5,189.5 C 119.167,189.5 153.833,189.5 188.5,189.5C 188.17,210.007 188.503,230.34 189.5,250.5C 201.655,251.495 213.989,251.829 226.5,251.5C 226.5,231.167 226.5,210.833 226.5,190.5C 260.833,190.5 295.167,190.5 329.5,190.5C 329.5,194.167 329.5,197.833 329.5,201.5C 323.158,201.334 316.825,201.5 310.5,202C 316.619,205.394 322.952,208.228 329.5,210.5C 329.5,212.833 329.5,215.167 329.5,217.5C 318.526,212.347 307.526,207.181 296.5,202C 287.5,201.333 278.5,201.333 269.5,202C 289.405,211.787 309.405,221.287 329.5,230.5C 329.5,236.833 329.5,243.167 329.5,249.5C 329.167,249.5 328.833,249.5 328.5,249.5C 298.708,235.771 269.041,221.771 239.5,207.5C 239.44,206.957 239.107,206.624 238.5,206.5C 237.501,221.485 237.167,236.485 237.5,251.5C 268.167,251.5 298.833,251.5 329.5,251.5C 361.167,251.5 392.833,251.5 424.5,251.5C 424.5,280.5 424.5,309.5 424.5,338.5C 389.5,338.5 354.5,338.5 319.5,338.5C 275.646,309.648 231.813,280.648 188,251.5C 187.503,254.146 187.336,256.813 187.5,259.5C 184.167,259.5 180.833,259.5 177.5,259.5C 177.833,241.821 177.5,224.154 176.5,206.5C 175.893,206.624 175.56,206.957 175.5,207.5C 145.5,221.5 115.5,235.5 85.5,249.5C 84.5386,247.735 84.2053,245.735 84.5,243.5C 85.4916,243.672 86.1583,243.338 86.5,242.5C 115.266,229.285 143.932,215.785 172.5,202C 163.167,201.333 153.833,201.333 144.5,202C 124.742,211.547 105.075,221.047 85.5,230.5C 85.1667,230.5 84.8333,230.5 84.5,230.5C 84.2066,223.745 84.5399,217.078 85.5,210.5C 91.5946,207.954 97.5946,205.12 103.5,202C 97.1754,201.5 90.8421,201.334 84.5,201.5C 84.5,197.5 84.5,193.5 84.5,189.5 Z"/></g>
<g><path style="opacity:1" fill="#eda3a3" d="M 329.5,189.5 C 329.5,189.833 329.5,190.167 329.5,190.5C 295.167,190.5 260.833,190.5 226.5,190.5C 226.5,210.833 226.5,231.167 226.5,251.5C 213.989,251.829 201.655,251.495 189.5,250.5C 201.5,250.5 213.5,250.5 225.5,250.5C 225.5,230.167 225.5,209.833 225.5,189.5C 260.167,189.5 294.833,189.5 329.5,189.5 Z"/></g>
<g><path style="opacity:1" fill="#14106f" d="M 84.5,201.5 C 90.8421,201.334 97.1754,201.5 103.5,202C 97.5946,205.12 91.5946,207.954 85.5,210.5C 84.5233,207.713 84.19,204.713 84.5,201.5 Z"/></g>
<g><path style="opacity:1" fill="#cd1009" d="M 86.5,242.5 C 85.5166,238.702 85.1832,234.702 85.5,230.5C 105.075,221.047 124.742,211.547 144.5,202C 153.833,201.333 163.167,201.333 172.5,202C 143.932,215.785 115.266,229.285 86.5,242.5 Z"/></g>
<g><path style="opacity:1" fill="#cd110a" d="M 329.5,217.5 C 329.5,221.833 329.5,226.167 329.5,230.5C 309.405,221.287 289.405,211.787 269.5,202C 278.5,201.333 287.5,201.333 296.5,202C 307.526,207.181 318.526,212.347 329.5,217.5 Z"/></g>
<g><path style="opacity:1" fill="#19126f" d="M 329.5,201.5 C 329.5,204.5 329.5,207.5 329.5,210.5C 322.952,208.228 316.619,205.394 310.5,202C 316.825,201.5 323.158,201.334 329.5,201.5 Z"/></g>
<g><path style="opacity:1" fill="#c4c4db" d="M 175.5,207.5 C 175.56,206.957 175.893,206.624 176.5,206.5C 177.5,224.154 177.833,241.821 177.5,259.5C 177.167,259.5 176.833,259.5 176.5,259.5C 176.83,241.992 176.497,224.659 175.5,207.5 Z"/></g>
<g><path style="opacity:1" fill="#010066" d="M 239.5,207.5 C 269.041,221.771 298.708,235.771 328.5,249.5C 298.671,250.498 268.671,250.831 238.5,250.5C 238.171,235.99 238.504,221.657 239.5,207.5 Z"/></g>
<g><path style="opacity:1" fill="#030167" d="M 175.5,207.5 C 176.497,224.659 176.83,241.992 176.5,259.5C 145.833,259.5 115.167,259.5 84.5,259.5C 84.2529,256.061 84.5863,252.728 85.5,249.5C 115.5,235.5 145.5,221.5 175.5,207.5 Z"/></g>
<g><path style="opacity:1" fill="#963a58" d="M 84.5,230.5 C 84.8333,230.5 85.1667,230.5 85.5,230.5C 85.1832,234.702 85.5166,238.702 86.5,242.5C 86.1583,243.338 85.4916,243.672 84.5,243.5C 84.5,239.167 84.5,234.833 84.5,230.5 Z"/></g>
<g><path style="opacity:1" fill="#7976ab" d="M 239.5,207.5 C 238.504,221.657 238.171,235.99 238.5,250.5C 268.671,250.831 298.671,250.498 328.5,249.5C 328.833,249.5 329.167,249.5 329.5,249.5C 329.5,250.167 329.5,250.833 329.5,251.5C 298.833,251.5 268.167,251.5 237.5,251.5C 237.167,236.485 237.501,221.485 238.5,206.5C 239.107,206.624 239.44,206.957 239.5,207.5 Z"/></g>
<g><path style="opacity:1" fill="#02006f" d="M 319.5,338.5 C 319.5,338.833 319.5,339.167 319.5,339.5C 276.167,367.833 232.833,396.167 189.5,424.5C 188.833,424.833 188.167,425.167 187.5,425.5C 187.5,370.167 187.5,314.833 187.5,259.5C 187.336,256.813 187.503,254.146 188,251.5C 231.813,280.648 275.646,309.648 319.5,338.5 Z"/></g>
<g><path style="opacity:1" fill="#e70000" d="M 319.5,339.5 C 354.167,339.5 388.833,339.5 423.5,339.5C 423.5,368.167 423.5,396.833 423.5,425.5C 345.332,425.833 267.332,425.499 189.5,424.5C 232.833,396.167 276.167,367.833 319.5,339.5 Z"/></g>
<g><path style="opacity:1" fill="#d53d49" d="M 319.5,339.5 C 319.5,339.167 319.5,338.833 319.5,338.5C 354.5,338.5 389.5,338.5 424.5,338.5C 424.5,367.5 424.5,396.5 424.5,425.5C 424.167,425.5 423.833,425.5 423.5,425.5C 423.5,396.833 423.5,368.167 423.5,339.5C 388.833,339.5 354.167,339.5 319.5,339.5 Z"/></g>
<g><path style="opacity:1" fill="#a13555" d="M 189.5,424.5 C 267.332,425.499 345.332,425.833 423.5,425.5C 423.833,425.5 424.167,425.5 424.5,425.5C 345.5,426.833 266.5,426.833 187.5,425.5C 188.167,425.167 188.833,424.833 189.5,424.5 Z"/></g>
</svg>
